<svg width="8" height="9" viewBox="0 0 8 9" fill="none" xmlns="http://www.w3.org/2000/svg">
<path d="M6.5 3.25H5.25V2C5.25 1.66848 5.1183 1.35054 4.88388 1.11612C4.64946 0.881696 4.33152 0.75 4 0.75C3.66848 0.75 3.35054 0.881696 3.11612 1.11612C2.8817 1.35054 2.75 1.66848 2.75 2V3.25H1.5C1.16848 3.25 0.850537 3.3817 0.616117 3.61612C0.381696 3.85054 0.25 4.16848 0.25 4.5C0.25 4.83152 0.381696 5.14946 0.616117 5.38388C0.850537 5.6183 1.16848 5.75 1.5 5.75H2.75V7C2.75 7.33152 2.8817 7.64946 3.11612 7.88388C3.35054 8.1183 3.66848 8.25 4 8.25C4.33152 8.25 4.64946 8.1183 4.88388 7.88388C5.1183 7.64946 5.25 7.33152 5.25 7V5.75H6.5C6.83152 5.75 7.14946 5.6183 7.38388 5.38388C7.6183 5.14946 7.75 4.83152 7.75 4.5C7.75 4.16848 7.6183 3.85054 7.38388 3.61612C7.14946 3.3817 6.83152 3.25 6.5 3.25Z" fill="white" fill-opacity="0.38"/>
</svg>
